<?xml version="1.0" encoding="utf-8"?>
<!-- Generator: Adobe Illustrator 23.0.1, SVG Export Plug-In . SVG Version: 6.00 Build 0)  -->
<svg version="1.1" id="Layer_1" xmlns="http://www.w3.org/2000/svg" xmlns:xlink="http://www.w3.org/1999/xlink" x="0px" y="0px"
	 viewBox="0 0 304 65.84" style="enable-background:new 0 0 304 65.84;" xml:space="preserve">
<style type="text/css">
	.st0{fill:#FFD321;}
	.st1{fill:none;}
	.st2{fill:#FFFFFF;}
</style>
<g>
	<path class="st0" d="M20.24,52.92c-0.11,0.33-0.08,0.63,0.4,0.79l0.34,0.11l0.39-1.19l-0.35-0.11
		C20.58,52.37,20.36,52.55,20.24,52.92"/>
	<path class="st0" d="M30.79,53.54c-0.56,0.04-0.66,0.32-0.63,0.79c0.03,0.41,0.18,0.7,0.72,0.66l0.3-0.02l-0.11-1.46L30.79,53.54z"
		/>
	<rect class="st1" width="194.44" height="65.84"/>
	<polygon class="st0" points="10.99,47.39 11,47.4 12.19,46.86 11.54,46.21 	"/>
	<path class="st0" d="M23.36,53.83c-0.07,0.34,0,0.64,0.5,0.73l0.35,0.07l0.24-1.23l-0.36-0.07C23.62,53.25,23.44,53.44,23.36,53.83
		"/>
	<path class="st0" d="M7.84,41.99c-0.89,0.61-0.91,1.06-0.5,1.65l0.16,0.24l2.25-1.55L9.6,42.11C9.13,41.43,8.71,41.39,7.84,41.99"
		/>
	<path class="st0" d="M23.52,52.46c-0.07,0.37,0.05,0.69,0.56,0.79l0.38,0.08l0.27-1.38l-0.41-0.08
		C23.8,51.77,23.62,51.98,23.52,52.46"/>
	<path class="st0" d="M20.58,51.58c-0.12,0.35-0.04,0.7,0.45,0.86l0.36,0.12l0.44-1.33l-0.4-0.13
		C20.93,50.93,20.73,51.11,20.58,51.58"/>
	<path class="st0" d="M32.37,3.63c0.04-0.39-0.09-0.66-0.65-0.72l-0.29-0.03l-0.14,1.31l0.34,0.04C32.18,4.29,32.32,4.07,32.37,3.63
		"/>
	<path class="st0" d="M13.13,11.73c0.38-0.35,0.38-0.83-0.35-1.62c-0.73-0.8-1.24-0.82-1.62-0.47c-0.38,0.35-0.37,0.83,0.36,1.62
		C12.25,12.06,12.75,12.08,13.13,11.73"/>
	<rect class="st1" width="194.44" height="65.84"/>
	<polygon class="st0" points="3.69,33.99 3.69,34.01 4.99,34.25 4.81,33.34 	"/>
	<polygon class="st0" points="42.27,6.88 42.25,6.87 41.21,7.66 41.99,8.15 	"/>
	<polygon class="st0" points="4.54,20.69 4.53,20.7 5.53,21.55 5.83,20.68 	"/>
	<path class="st0" d="M6.68,17.9c0.25-0.5,0.09-0.71-0.3-0.91c-0.35-0.17-0.65-0.13-0.9,0.36l-0.13,0.27l1.18,0.58L6.68,17.9z"/>
	<path class="st0" d="M46.57,11.45c0.75-0.79,0.67-1.23,0.14-1.73l-0.21-0.2l-1.88,1.99l0.2,0.19
		C45.43,12.27,45.84,12.23,46.57,11.45"/>
	<path class="st0" d="M51.73,34.3c-0.2,0.81,0.04,1.14,1.08,1.4c1.04,0.26,1.4-0.02,1.57-0.73l0.07-0.28l-2.65-0.66L51.73,34.3z"/>
	<path class="st0" d="M49.22,40.63c-0.43,0.72-0.29,1.11,0.63,1.65c0.93,0.55,1.34,0.38,1.71-0.25l0.14-0.25l-2.35-1.39L49.22,40.63
		z"/>
	<path class="st0" d="M37.07,52.38c-0.53,0.18-0.56,0.44-0.41,0.86c0.13,0.37,0.36,0.55,0.89,0.37l0.28-0.1l-0.43-1.25L37.07,52.38z
		"/>
	<rect class="st1" width="194.44" height="65.84"/>
	<polygon class="st0" points="41.15,50.19 42.14,51.03 42.16,51.02 41.94,49.72 	"/>
	<path class="st0" d="M55.06,31.3l-0.05-0.01c0.02-0.35-0.06-0.42-0.23-0.44l-1.67-0.17c-0.62-0.06-0.86,0.29-0.9,0.76
		c-0.02,0.21,0.02,0.4,0.14,0.55c0.13,0.16,0.33,0.26,0.64,0.29l1.26,0.13c0.4,0.04,0.59-0.08,0.69-0.49L55,31.92l-0.11,1.14
		l-0.05,0c-0.02-0.4-0.18-0.51-0.59-0.55l-1.3-0.13c-0.58-0.06-0.93-0.42-0.86-1.16c0.07-0.71,0.42-1.09,1.02-1.03l1.72,0.17
		c0.16,0.02,0.27-0.07,0.32-0.42l0.05,0.01L55.06,31.3z M54.44,35.05c-0.25,1-0.95,1.37-1.73,1.18c-0.75-0.18-1.35-0.8-1.09-1.83
		l0.32-1.31L52,33.11c-0.07,0.36-0.01,0.47,0.16,0.51l2.18,0.54c0.16,0.04,0.28-0.03,0.37-0.37l0.05,0.01L54.44,35.05z M53.3,38.64
		l-0.04-0.02c0.12-0.36,0.06-0.47-0.1-0.53l-2.1-0.77c-0.16-0.06-0.27-0.01-0.41,0.34l-0.05-0.01l0.48-1.33l0.05,0.02
		c-0.12,0.36-0.06,0.47,0.1,0.54l2.1,0.77c0.16,0.05,0.28,0.01,0.42-0.34l0.05,0.02L53.3,38.64z M51.6,42.13
		c-0.53,0.88-1.31,1.04-1.99,0.64c-0.66-0.39-1.06-1.16-0.52-2.07l0.69-1.15l0.04,0.03c-0.17,0.31-0.14,0.44,0.01,0.52l1.93,1.14
		c0.14,0.08,0.27,0.05,0.46-0.25l0.04,0.03L51.6,42.13z M48.82,46.06l-0.74-0.57l0.03-0.05c0.61,0.17,0.94,0.19,1.25-0.19l0.31-0.39
		l-0.99-0.79l-0.14,0.18c-0.21,0.27-0.23,0.49,0.05,0.86l-0.04,0.04l-0.95-0.75l0.04-0.04c0.41,0.19,0.63,0.12,0.84-0.15l0.14-0.17
		l-1.09-0.86l-0.3,0.38c-0.36,0.46-0.28,0.8,0.06,1.39l-0.04,0.05l-0.76-0.63l1.56-1.98l0.04,0.04c-0.22,0.29-0.2,0.41-0.07,0.52
		l1.75,1.39c0.13,0.11,0.26,0.09,0.5-0.19l0.04,0.03L48.82,46.06z M47.2,47.74l-0.04-0.04c0.26-0.27,0.24-0.37,0.12-0.5l-1.74-1.77
		l-0.23,0.22c-0.41,0.4-0.44,0.71-0.15,1.41l-0.04,0.03l-0.65-0.72l1.69-1.66l0.05,0.04c-0.25,0.26-0.25,0.39-0.14,0.51l1.57,1.59
		c0.12,0.12,0.25,0.12,0.51-0.12l0.03,0.04L47.2,47.74z M44.86,49.76l-0.03-0.04c0.29-0.24,0.28-0.34,0.17-0.48l-1.53-1.97
		l-0.25,0.2c-0.46,0.35-0.52,0.65-0.32,1.38l-0.05,0.03l-0.56-0.79l1.88-1.45l0.03,0.04c-0.28,0.23-0.29,0.36-0.19,0.49l1.37,1.77
		c0.1,0.13,0.23,0.16,0.52-0.06l0.03,0.04L44.86,49.76z M42.18,51.66l-2.08-1.7c-0.24-0.19-0.32-0.22-0.62-0.1l-0.03-0.05l1.16-0.69
		l0.03,0.05c-0.33,0.21-0.34,0.32-0.14,0.48l0.57,0.49l0.84-0.5l-0.06-0.38c-0.09-0.52-0.22-0.6-0.57-0.46l-0.03-0.05l0.83-0.5
		l0.03,0.05c-0.2,0.2-0.24,0.41-0.17,0.89l0.37,2.37L42.18,51.66z M37.51,53.71c-0.81,0.28-1.21,0.09-1.34-0.28
		c-0.12-0.34,0.02-0.67,0.59-0.98l0-0.01c-0.59,0.18-0.81-0.03-1-0.4l-0.11-0.21c-0.18-0.33-0.25-0.36-0.59-0.24l-0.01-0.05
		c0.12-0.07,0.26-0.13,0.39-0.18c0.43-0.14,0.56-0.03,0.71,0.31l0.16,0.35c0.18,0.38,0.32,0.45,0.77,0.29l0.3-0.1l-0.35-1.03
		c-0.05-0.17-0.17-0.22-0.5-0.12L36.5,51l1.29-0.45l0.02,0.05c-0.34,0.13-0.39,0.25-0.34,0.4l0.73,2.12
		c0.06,0.15,0.18,0.22,0.52,0.11l0.01,0.04L37.51,53.71z M33.07,54.84l-0.19-0.91l0.05-0.02c0.35,0.53,0.59,0.76,1.08,0.66l0.49-0.1
		l-0.25-1.25l-0.22,0.05c-0.34,0.07-0.49,0.23-0.51,0.68l-0.06,0.01l-0.23-1.19l0.05-0.01c0.2,0.41,0.4,0.5,0.74,0.43l0.22-0.05
		l-0.27-1.35l-0.47,0.1c-0.57,0.12-0.74,0.43-0.85,1.1L32.57,53l-0.17-0.97l2.47-0.5l0.01,0.05c-0.35,0.08-0.42,0.19-0.39,0.36
		l0.45,2.19c0.03,0.16,0.14,0.24,0.49,0.18l0.01,0.05L33.07,54.84z M30.88,55.07c-0.91,0.07-1.22-0.25-1.25-0.7
		c-0.03-0.42,0.24-0.84,1.15-0.91l0.27-0.02l-0.07-0.94c-0.01-0.18-0.11-0.25-0.5-0.24l-0.01-0.05l1.41-0.1l0,0.05
		c-0.36,0.04-0.44,0.14-0.43,0.31l0.17,2.23c0.01,0.16,0.11,0.25,0.47,0.24l0,0.05L30.88,55.07z M20.49,48.94
		c-3.89-1.65-7.21-4.4-9.55-7.87c-2.34-3.47-3.71-7.63-3.71-12.14c0-3,0.61-5.85,1.7-8.44c1.65-3.89,4.4-7.21,7.87-9.55
		c3.47-2.34,7.63-3.71,12.13-3.71c3,0,5.85,0.6,8.45,1.7c3.89,1.65,7.21,4.4,9.55,7.87c2.34,3.47,3.7,7.63,3.7,12.13
		c0,3.01-0.6,5.85-1.7,8.45c-1.64,3.89-4.4,7.21-7.86,9.55c-3.47,2.34-7.63,3.7-12.14,3.7C25.94,50.64,23.09,50.04,20.49,48.94
		 M28.93,55.19l-1.35-0.08l0-0.05c0.36,0.01,0.42-0.08,0.43-0.25l0.1-1.67c0.03-0.63-0.33-0.85-0.79-0.87
		c-0.21-0.02-0.4,0.04-0.54,0.15c-0.15,0.14-0.25,0.34-0.27,0.66l-0.07,1.27c-0.03,0.4,0.1,0.58,0.52,0.67l0,0.05L25.81,55v-0.05
		c0.4-0.04,0.5-0.21,0.52-0.61l0.08-1.3c0.03-0.58,0.38-0.95,1.12-0.9c0.71,0.04,1.11,0.38,1.07,0.97l-0.1,1.72
		c-0.01,0.16,0.08,0.27,0.43,0.3L28.93,55.19z M25.65,52.11c-0.35-0.06-0.46,0.01-0.5,0.18l-0.43,2.2
		c-0.03,0.16,0.03,0.27,0.39,0.35l-0.01,0.05l-1.28-0.25c-0.85-0.17-1.04-0.55-0.97-0.9c0.06-0.3,0.34-0.55,0.95-0.48v-0.01
		c-0.62-0.15-0.88-0.47-0.8-0.88c0.08-0.4,0.45-0.75,1.34-0.57l1.31,0.26L25.65,52.11z M22.73,51.5c-0.34-0.1-0.46-0.05-0.51,0.11
		l-0.71,2.12c-0.05,0.16,0.01,0.28,0.35,0.41l-0.01,0.04l-1.24-0.41c-0.81-0.27-0.96-0.67-0.84-1.01c0.1-0.29,0.41-0.5,1.01-0.36
		l0-0.02c-0.6-0.23-0.81-0.58-0.68-0.97c0.13-0.39,0.54-0.69,1.4-0.4l1.27,0.43L22.73,51.5z M19.39,50.59l-0.97,2.02
		c-0.07,0.15-0.03,0.27,0.29,0.44l-0.03,0.04l-1.23-0.59l0.02-0.04c0.34,0.15,0.43,0.09,0.51-0.06l1.07-2.25l-0.29-0.14
		c-0.52-0.25-0.82-0.18-1.37,0.34l-0.05-0.03l0.46-0.86l2.14,1.02l-0.02,0.05C19.59,50.39,19.46,50.43,19.39,50.59 M16.86,49.28
		l-1.16,1.91c-0.08,0.14-0.06,0.27,0.26,0.47l-0.02,0.04l-1.21-0.73l0.02-0.05c0.33,0.19,0.45,0.15,0.54,0.01l1.16-1.92
		c0.08-0.14,0.06-0.27-0.26-0.47l0.02-0.05l1.21,0.73l-0.03,0.05C17.07,49.1,16.95,49.13,16.86,49.28 M12.81,49.7
		c-0.24-0.19-0.4-0.4-0.49-0.59l-0.27,0.04l-0.03-0.02l0.61-0.8l0.04,0.03c-0.17,0.6-0.13,1.04,0.23,1.3
		c0.39,0.3,0.99,0.2,1.59-0.58c0.59-0.77,0.41-1.4,0.01-1.7c-0.38-0.29-0.83-0.25-1.21-0.05l-0.03-0.08
		c0.38-0.21,0.92-0.32,1.45,0.09c0.68,0.51,0.78,1.32,0.24,2.03C14.41,50.11,13.48,50.21,12.81,49.7 M10.39,47.58l1.11-2.45
		c0.13-0.27,0.13-0.36-0.07-0.63l0.03-0.04l0.97,0.96l-0.04,0.04c-0.29-0.26-0.4-0.24-0.5-0.01l-0.32,0.68l0.69,0.69l0.36-0.16
		c0.48-0.22,0.53-0.37,0.3-0.68l0.04-0.04l0.69,0.68l-0.03,0.04c-0.25-0.14-0.47-0.13-0.91,0.07l-2.2,0.97L10.39,47.58z M10.31,43.1
		c-0.22-0.29-0.34-0.31-0.48-0.21l-1.85,1.27c-0.13,0.1-0.16,0.22,0.03,0.53L7.97,44.7l-0.74-1.07c-0.58-0.85-0.39-1.63,0.26-2.08
		c0.63-0.43,1.49-0.47,2.09,0.4l0.76,1.11L10.31,43.1z M6.01,41.57L5.97,41.6l-0.65-1.25l0.05-0.03c0.18,0.33,0.31,0.36,0.46,0.29
		l1.98-1.03c0.15-0.08,0.19-0.2,0.03-0.54l0.05-0.03l0.65,1.25l-0.05,0.03C8.3,39.96,8.18,39.92,8.03,40l-1.99,1.04
		C5.9,41.11,5.85,41.23,6.01,41.57 M3.91,36.96c-0.08-0.24-0.08-0.48-0.06-0.64l-0.2-0.09l-0.02-0.05l0.89-0.29l0.02,0.06
		C4.08,36.34,3.9,36.68,4,37c0.09,0.27,0.34,0.46,0.65,0.36c0.34-0.11,0.38-0.41,0.38-0.91c0.01-0.42,0.01-0.86,0.53-1.03
		c0.43-0.14,0.99-0.04,1.21,0.64c0.07,0.23,0.08,0.52,0.03,0.72l0.27,0.18L7.1,37l-0.99,0.32l-0.02-0.05
		c0.45-0.41,0.73-0.8,0.59-1.23c-0.12-0.38-0.45-0.49-0.69-0.41c-0.35,0.11-0.41,0.39-0.42,0.94c-0.01,0.44,0,0.89-0.51,1.06
		C4.53,37.78,4.08,37.49,3.91,36.96 M3.12,33.99l-0.03-0.17l2.29-1.39c0.26-0.16,0.32-0.23,0.3-0.55l0.05-0.01l0.26,1.33l-0.05,0.01
		c-0.09-0.38-0.19-0.42-0.4-0.3L4.89,33.3l0.19,0.96l0.37,0.07c0.52,0.09,0.65-0.01,0.64-0.38l0.05-0.01l0.19,0.95l-0.05,0.01
		c-0.13-0.25-0.31-0.37-0.78-0.46L3.12,33.99z M2.87,31.85l-0.04,0l-0.06-0.88l2.11-1.76v0l-1.5,0.08
		c-0.41,0.02-0.58,0.17-0.61,0.59H2.72l-0.06-1.14h0.05c0.09,0.38,0.26,0.47,0.66,0.45l2.26-0.12l0.01,0.13l-2.38,2.02v0.01
		l1.73-0.09c0.4-0.02,0.57-0.14,0.61-0.57h0.06l0.06,1.13H5.66c-0.08-0.38-0.26-0.49-0.67-0.47l-1.66,0.09
		C3.07,31.33,2.87,31.49,2.87,31.85 M2.97,25.09l2.36-0.49v-0.01l-2.05-1.24l0.17-0.94l0.04,0.01c-0.05,0.35,0.03,0.47,0.19,0.49
		l2.21,0.4c0.17,0.03,0.27-0.05,0.35-0.4l0.06,0.01l-0.24,1.33l-0.05,0c0.05-0.35-0.02-0.43-0.19-0.46l-2.25-0.41l-0.01,0.02
		l2.4,1.45l-0.02,0.1l-2.78,0.61l0,0.02l1.9,0.34c0.4,0.07,0.59,0,0.72-0.4l0.05,0.01l-0.2,1.11l-0.05-0.01
		c0.01-0.4-0.14-0.53-0.54-0.61l-1.66-0.3c-0.25-0.05-0.48,0.06-0.55,0.41l-0.05-0.01L2.97,25.09z M4.1,20.24l2.68-0.06
		c0.3-0.01,0.39-0.04,0.54-0.33l0.05,0.02l-0.44,1.29l-0.05-0.02c0.11-0.38,0.05-0.46-0.2-0.46H5.92L5.6,21.6l0.3,0.25
		c0.4,0.34,0.56,0.32,0.74-0.02l0.05,0.02l-0.32,0.92l-0.05-0.02c0.02-0.28-0.08-0.47-0.45-0.78L4.04,20.4L4.1,20.24z M5.44,17.26
		c0.38-0.76,0.81-0.92,1.15-0.74c0.32,0.16,0.46,0.5,0.26,1.11l0.01,0.01c0.29-0.54,0.6-0.55,1-0.41l0.22,0.08
		c0.36,0.11,0.43,0.08,0.59-0.24l0.04,0.02c-0.03,0.14-0.09,0.28-0.15,0.4c-0.2,0.4-0.37,0.41-0.73,0.28l-0.36-0.13
		c-0.39-0.15-0.54-0.1-0.76,0.34L6.6,18.25l0.97,0.49c0.16,0.08,0.27,0.03,0.44-0.27l0.05,0.03l-0.61,1.23L7.4,19.69
		c0.15-0.33,0.11-0.45-0.04-0.53l-2-1c-0.15-0.07-0.28-0.03-0.45,0.28l-0.05-0.03L5.44,17.26z M7.21,14.21l0.04,0.03
		c-0.2,0.32-0.16,0.45-0.02,0.54l1.88,1.2c0.14,0.09,0.27,0.07,0.48-0.25l0.05,0.03l-0.76,1.18l-0.04-0.03
		C9.03,16.6,9,16.47,8.86,16.38l-1.89-1.21c-0.14-0.09-0.27-0.07-0.48,0.24l-0.04-0.03L7.21,14.21z M8.17,12.87l2.74,0.11v0
		l-1.16-0.95c-0.32-0.25-0.54-0.25-0.85,0.03l-0.04-0.03l0.72-0.89l0.04,0.03c-0.19,0.34-0.12,0.53,0.19,0.78l1.76,1.42l-0.09,0.11
		l-3.12-0.1v0l1.34,1.09c0.31,0.26,0.52,0.28,0.83-0.01l0.04,0.03l-0.72,0.88l-0.04-0.03c0.2-0.34,0.14-0.54-0.17-0.79L8.35,13.5
		c-0.2-0.16-0.45-0.17-0.7,0.09l-0.03-0.03L8.17,12.87z M11.11,9.57c0.56-0.52,1.44-0.52,2.06,0.16c0.61,0.67,0.54,1.56,0,2.07
		c-0.57,0.52-1.44,0.52-2.06-0.16C10.5,10.97,10.57,10.07,11.11,9.57 M15.83,6.2l0.03,0.04c-0.3,0.19-0.32,0.3-0.23,0.45l0.83,1.45
		c0.31,0.54,0.73,0.53,1.14,0.3c0.18-0.1,0.32-0.25,0.37-0.43c0.05-0.2,0.02-0.42-0.13-0.7l-0.62-1.1C17,5.85,16.8,5.77,16.4,5.93
		l-0.03-0.04l1-0.56l0.03,0.04c-0.31,0.25-0.31,0.44-0.1,0.79l0.64,1.13c0.29,0.51,0.2,1.01-0.45,1.37
		c-0.62,0.35-1.13,0.28-1.43-0.23l-0.85-1.5C15.12,6.78,15,6.74,14.68,6.91l-0.03-0.04L15.83,6.2z M18.88,4.68l2.33,1.44h0
		l-0.54-1.4c-0.15-0.38-0.34-0.49-0.74-0.39l-0.02-0.04l1.06-0.41l0.02,0.04c-0.34,0.21-0.37,0.4-0.22,0.77l0.82,2.11l-0.13,0.05
		L18.8,5.22H18.8l0.62,1.61c0.15,0.38,0.31,0.5,0.73,0.4l0.02,0.05L19.11,7.7l-0.02-0.05c0.34-0.2,0.39-0.4,0.24-0.78l-0.6-1.55
		c-0.09-0.24-0.31-0.38-0.64-0.27L18.06,5L18.88,4.68z M22.99,3.36l0.01,0.05c-0.36,0.11-0.42,0.22-0.37,0.38l0.56,2.16
		c0.04,0.17,0.15,0.23,0.52,0.15l0.01,0.05l-1.37,0.36l-0.01-0.05c0.36-0.1,0.42-0.22,0.38-0.38l-0.56-2.17
		C22.11,3.75,22,3.68,21.63,3.77l-0.01-0.05L22.99,3.36z M24.87,3l0.01,0.05c-0.38,0.08-0.43,0.19-0.3,0.41l1.01,1.82h0.02L26,3.47
		c0.08-0.38,0-0.51-0.38-0.53l-0.01-0.05l0.95-0.14l0.01,0.05C26.3,2.9,26.2,3.06,26.09,3.56L25.55,5.9l-0.14,0.02L24.09,3.6
		c-0.15-0.27-0.24-0.34-0.55-0.35L23.54,3.2L24.87,3z M29.52,2.67l0.03,0.93l-0.06,0.02c-0.25-0.59-0.45-0.86-0.94-0.85l-0.5,0.01
		l0.02,1.28l0.22-0.01c0.34,0,0.52-0.14,0.63-0.58h0.05L29,4.68l-0.05,0c-0.12-0.43-0.31-0.56-0.65-0.55h-0.22l0.03,1.38l0.49-0.01
		c0.58-0.01,0.79-0.29,1.04-0.93l0.06,0v0.99l-2.51,0.05V5.55c0.36-0.02,0.44-0.11,0.44-0.28l-0.04-2.24
		c-0.01-0.16-0.1-0.26-0.46-0.26l0-0.05L29.52,2.67z M30.19,5.52c0.36,0.03,0.46-0.05,0.48-0.22l0.25-2.23
		c0.01-0.17-0.06-0.27-0.42-0.32l0-0.05l1.3,0.14c0.85,0.1,1.13,0.44,1.09,0.83c-0.03,0.36-0.31,0.6-0.95,0.63v0.01
		c0.6,0.09,0.72,0.37,0.73,0.8l0,0.24c0.02,0.37,0.08,0.43,0.43,0.47L33.1,5.87c-0.14,0.02-0.29,0.01-0.43,0
		c-0.44-0.05-0.51-0.21-0.51-0.59l0-0.39c0-0.42-0.1-0.54-0.57-0.59l-0.31-0.04l-0.12,1.08c-0.02,0.18,0.06,0.27,0.4,0.32
		l-0.01,0.05l-1.36-0.15L30.19,5.52z M33.59,5.04l0.05,0.02c0.12,0.59,0.31,1.03,0.74,1.14c0.4,0.1,0.65-0.12,0.71-0.38
		c0.09-0.35-0.12-0.55-0.58-0.84c-0.37-0.24-0.76-0.47-0.63-0.99c0.13-0.53,0.61-0.77,1.16-0.63c0.24,0.05,0.45,0.17,0.57,0.28
		L35.8,3.5l0.05,0.01l-0.22,0.9L35.58,4.4c-0.09-0.58-0.29-0.91-0.62-0.99c-0.27-0.06-0.56,0.06-0.64,0.38
		c-0.08,0.35,0.14,0.54,0.57,0.8c0.35,0.22,0.73,0.46,0.61,0.98c-0.11,0.45-0.48,0.87-1.18,0.7c-0.23-0.06-0.48-0.2-0.64-0.35
		L33.4,6.06l-0.05-0.01L33.59,5.04z M36.31,6.43l0.72-2.12c0.05-0.16,0-0.27-0.35-0.41l0.01-0.05l1.34,0.45l-0.01,0.05
		c-0.36-0.11-0.48-0.05-0.53,0.11l-0.71,2.12c-0.06,0.16,0,0.28,0.35,0.41L37.1,7.04l-1.34-0.45l0.02-0.06
		C36.14,6.64,36.25,6.59,36.31,6.43 M38.07,7.36c0.34,0.14,0.49,0.12,0.56-0.04l1.04-2.26l-0.15-0.07c-0.28-0.12-0.64,0.02-1.1,0.4
		l-0.05-0.03l0.4-0.81l2.31,1.06l-0.35,0.83l-0.06-0.02c-0.02-0.58-0.13-0.97-0.41-1.1L40.1,5.27l-1.04,2.26
		c-0.07,0.15,0.01,0.29,0.33,0.45l-0.02,0.05l-1.33-0.62L38.07,7.36z M42.8,6.55l-0.53,2.63c-0.06,0.3-0.04,0.39,0.21,0.6
		l-0.03,0.05l-1.16-0.71l0.03-0.05c0.34,0.19,0.44,0.14,0.49-0.1l0.16-0.73l-0.83-0.51l-0.31,0.24c-0.42,0.32-0.43,0.47-0.14,0.72
		l-0.03,0.05l-0.83-0.51l0.03-0.04c0.27,0.08,0.48,0.02,0.87-0.27l1.92-1.45L42.8,6.55z M42.79,5.49c0.05-0.09,0.17-0.11,0.26-0.05
		c0.11,0.07,0.1,0.18,0.05,0.42l-0.11,0.56l-0.05-0.03l-0.14-0.52C42.76,5.67,42.75,5.56,42.79,5.49 M43.92,10.88
		c0.27,0.24,0.4,0.24,0.52,0.12l1.54-1.63c0.11-0.12,0.11-0.26-0.14-0.51l0.03-0.04l0.94,0.89c0.75,0.7,0.73,1.51,0.18,2.09
		c-0.53,0.56-1.36,0.78-2.13,0.05l-0.98-0.92L43.92,10.88z M48.52,11.42l1.51,1.87l-0.72,0.6l-0.04-0.04
		c0.31-0.56,0.4-0.88,0.09-1.26l-0.31-0.39l-0.99,0.8l0.14,0.18c0.22,0.27,0.43,0.33,0.84,0.14l0.04,0.04l-0.95,0.76l-0.03-0.04
		c0.27-0.36,0.26-0.58,0.04-0.85l-0.14-0.18l-1.08,0.87l0.31,0.38c0.36,0.45,0.72,0.45,1.37,0.25l0.03,0.05l-0.78,0.6l-1.58-1.96
		l0.05-0.03c0.24,0.27,0.36,0.28,0.49,0.18l1.74-1.4c0.13-0.11,0.14-0.23-0.07-0.52L48.52,11.42z M51.48,15.38
		c0.17,0.27,0.23,0.51,0.25,0.73l0.26,0.06l0.03,0.04l-0.82,0.5l-0.03-0.05c0.35-0.48,0.44-0.91,0.23-1.27
		c-0.25-0.4-0.82-0.58-1.7-0.04c-0.89,0.54-0.98,1.16-0.74,1.56c0.13,0.2,0.28,0.34,0.44,0.39l0.67-0.41
		c0.15-0.09,0.19-0.24,0.02-0.55l0.04-0.03l0.66,1.07l-0.05,0.03c-0.14-0.22-0.24-0.23-0.41-0.12l-0.65,0.4
		c-0.3-0.15-0.59-0.45-0.77-0.75c-0.41-0.67-0.33-1.56,0.5-2.07C50.18,14.41,51.08,14.7,51.48,15.38 M52.39,17.21l0.05-0.02
		l0.55,1.25l-0.04,0.02c-0.16-0.34-0.27-0.35-0.43-0.28l-2.27,1.01l0.13,0.29c0.23,0.52,0.51,0.67,1.26,0.64l0.02,0.05l-0.9,0.36
		l-0.96-2.17l0.05-0.03c0.15,0.33,0.28,0.38,0.43,0.3l2.05-0.91C52.47,17.67,52.52,17.55,52.39,17.21 M53.59,20.05l0.05-0.01
		l0.44,1.33l-0.05,0.02c-0.13-0.36-0.25-0.41-0.41-0.36l-2.13,0.7c-0.16,0.06-0.22,0.17-0.12,0.53l-0.05,0.02l-0.44-1.33l0.05-0.02
		c0.13,0.35,0.24,0.4,0.41,0.35l2.13-0.7C53.63,20.53,53.69,20.42,53.59,20.05 M54.93,24.94c0.03,0.24,0,0.48-0.05,0.64l0.19,0.12
		l0.01,0.05l-0.91,0.14l-0.01-0.05c0.5-0.31,0.74-0.62,0.69-0.95c-0.04-0.28-0.26-0.51-0.59-0.46c-0.35,0.05-0.44,0.35-0.52,0.84
		c-0.07,0.41-0.15,0.85-0.68,0.93c-0.46,0.07-0.98-0.12-1.09-0.83c-0.04-0.24,0-0.52,0.08-0.72l-0.24-0.22l-0.01-0.05l1.02-0.16
		l0.01,0.06c-0.51,0.33-0.85,0.68-0.78,1.12c0.06,0.4,0.36,0.56,0.63,0.52c0.36-0.05,0.46-0.32,0.56-0.86
		c0.08-0.43,0.14-0.88,0.67-0.96C54.44,24.03,54.84,24.39,54.93,24.94 M55.19,29.13L54.3,29.2l0-0.06c0.51-0.27,0.8-0.55,0.79-0.86
		l-0.01-0.16l-2.48,0.1c-0.17,0.01-0.25,0.14-0.25,0.5l-0.06,0l-0.05-1.47h0.05c0.03,0.37,0.12,0.49,0.29,0.48l2.48-0.1l-0.01-0.16
		c-0.01-0.3-0.3-0.56-0.86-0.8l0-0.05l0.9-0.01L55.19,29.13z M54.63,18.09c-2.12-5.01-5.65-9.26-10.09-12.27
		c-4.45-3.01-9.83-4.76-15.59-4.76c-3.84,0-7.52,0.78-10.85,2.19C13.08,5.37,8.84,8.9,5.83,13.35c-3.01,4.44-4.77,9.83-4.77,15.59
		c0,3.84,0.78,7.52,2.19,10.85c2.12,5.01,5.65,9.26,10.1,12.26c4.45,3.01,9.82,4.76,15.58,4.76h0.01c3.84,0,7.52-0.78,10.86-2.19
		c5.01-2.12,9.25-5.65,12.26-10.09c3-4.45,4.76-9.83,4.76-15.59C56.83,25.1,56.04,21.42,54.63,18.09"/>
	<path class="st2" d="M28.93,57.45C13.2,57.45,0.4,44.65,0.4,28.93c0-15.72,12.8-28.52,28.52-28.52c15.73,0,28.52,12.8,28.52,28.52
		C57.45,44.65,44.66,57.45,28.93,57.45 M49.39,8.47C43.92,3.01,36.66,0,28.93,0C21.2,0,13.94,3.01,8.47,8.47
		C3.01,13.94,0,21.2,0,28.93c0,7.73,3.01,14.99,8.47,20.46c5.46,5.47,12.73,8.48,20.45,8.48c7.73,0,15-3.01,20.46-8.48
		c5.46-5.47,8.47-12.73,8.47-20.46C57.86,21.2,54.85,13.94,49.39,8.47"/>
	<path class="st0" d="M28.93,57.45C13.2,57.45,0.4,44.65,0.4,28.93c0-15.72,12.8-28.52,28.52-28.52c15.73,0,28.52,12.8,28.52,28.52
		C57.45,44.65,44.66,57.45,28.93,57.45 M49.39,8.47C43.92,3.01,36.66,0,28.93,0C21.2,0,13.94,3.01,8.47,8.47
		C3.01,13.94,0,21.2,0,28.93c0,7.73,3.01,14.99,8.47,20.46c5.46,5.47,12.73,8.48,20.45,8.48c7.73,0,15-3.01,20.46-8.48
		c5.46-5.47,8.47-12.73,8.47-20.46C57.86,21.2,54.85,13.94,49.39,8.47"/>
	<path class="st0" d="M43.69,23.28h-1.09v-1.01h1.09V23.28z M43.69,24.65h-7.65v-1.01h7.65V24.65z M42.59,26.01h-5.47L36.04,25h7.65
		L42.59,26.01z M42.59,32.85h-5.47v-1.01h5.47V32.85z M42.59,31.48h-5.47v-1.01h5.47V31.48z M39.31,30.11h-2.18V29.1h2.18V30.11z
		 M39.31,28.74h-2.18v-1.01h2.18V28.74z M37.13,26.37h5.47v1.01h-5.47V26.37z M42.59,30.11h-2.18V29.1h2.18V30.11z M40.41,27.74
		h2.18v1.01h-2.18V27.74z M43.69,34.21h-7.65V33.2h7.65V34.21z M43.14,35.58h-6.56v-1.01h6.56V35.58z M43.14,36.95h-2.19v-1.01h2.19
		V36.95z M43.14,38.32h-2.19v-1.01h2.19V38.32z M43.14,39.68h-2.19v-1.01h2.19V39.68z M38.77,36.95h-2.19v-1.01h2.19V36.95z
		 M38.77,38.32h-2.19v-1.01h2.19V38.32z M38.77,39.68h-2.19v-1.01h2.19V39.68z M32.75,23.28h-1.09v-1.01h1.09V23.28z M32.75,24.65
		H25.1v-1.01h7.65V24.65z M31.66,26.01h-5.47L25.1,25h7.65L31.66,26.01z M31.66,32.85h-5.47v-1.01h5.47V32.85z M31.66,31.48h-5.47
		v-1.01h5.47V31.48z M28.38,30.11h-2.19V29.1h2.19V30.11z M28.38,28.74h-2.19v-1.01h2.19V28.74z M26.19,26.37h5.47v1.01h-5.47V26.37
		z M31.66,30.11h-2.19V29.1h2.19V30.11z M29.48,27.74h2.19v1.01h-2.19V27.74z M32.75,34.21H25.1V33.2h7.65V34.21z M32.21,35.58
		h-6.56v-1.01h6.56V35.58z M32.21,36.95h-2.19v-1.01h2.19V36.95z M32.21,38.32h-2.19v-1.01h2.19V38.32z M32.21,39.68h-2.19v-1.01
		h2.19V39.68z M27.83,36.95h-2.19v-1.01h2.19V36.95z M27.83,38.32h-2.19v-1.01h2.19V38.32z M27.83,39.68h-2.19v-1.01h2.19V39.68z
		 M21.82,23.28h-1.09v-1.01h1.09V23.28z M21.82,24.65h-7.65v-1.01h7.65V24.65z M20.73,26.01h-5.47L14.17,25h7.65L20.73,26.01z
		 M20.73,32.85h-5.47v-1.01h5.47V32.85z M20.73,31.48h-5.47v-1.01h5.47V31.48z M17.45,30.11h-2.19V29.1h2.19V30.11z M17.45,28.74
		h-2.19v-1.01h2.19V28.74z M15.26,26.37h5.47v1.01h-5.47V26.37z M20.73,30.11h-2.18V29.1h2.18V30.11z M18.54,27.74h2.18v1.01h-2.18
		V27.74z M21.82,34.21h-7.65V33.2h7.65V34.21z M21.28,35.58h-6.56v-1.01h6.56V35.58z M21.28,36.95h-2.19v-1.01h2.19V36.95z
		 M21.28,38.32h-2.19v-1.01h2.19V38.32z M21.28,39.68h-2.19v-1.01h2.19V39.68z M16.9,36.95h-2.19v-1.01h2.19V36.95z M16.9,38.32
		h-2.19v-1.01h2.19V38.32z M16.9,39.68h-2.19v-1.01h2.19V39.68z M14.17,22.27h1.09v1.01h-1.09V22.27z M17.45,23.28h-1.1v-1.01h1.1
		V23.28z M16.29,16.44c0.13-0.24,0.65-0.75,0.95-0.59c0.18,0.09,0.3,0.31,0.39,0.47c0.12,0.2,0.23,0.4,0.36,0.59
		c0.05,0.08,0.1,0.17,0.16,0.24c0.16,0.23,0.3,0.45,0.35,0.73c0.05,0.3,0.03,0.62-0.02,0.93c-0.09,0.62-0.28,1.23-0.49,1.82
		c-0.01,0.01-0.01,0.01-0.01,0.02c-0.02-0.04-0.03-0.08-0.05-0.11c-0.45-1.15-1.61-2.48-1.68-3.8
		C16.26,16.64,16.27,16.55,16.29,16.44 M19.64,23.28h-1.1v-1.01h1.1V23.28z M16.42,15.8c0.27-0.63,0.85-1.17,1.57-1.15
		c0.28-0.01,0.56,0.07,0.83,0.24c0.69,0.47,1.19,1.36,0.75,2.62c-0.92,0.15-1.3-0.67-1.58-1.16v0c-0.17-0.29-0.37-0.72-0.72-0.82
		c-0.35-0.1-0.67,0.19-0.89,0.41C16.39,15.89,16.4,15.85,16.42,15.8 M25.1,22.27h1.09v1.01H25.1V22.27z M28.38,23.28h-1.09v-1.01
		h1.09V23.28z M27.22,16.44c0.13-0.24,0.65-0.75,0.95-0.59c0.18,0.09,0.3,0.31,0.39,0.47c0.12,0.2,0.23,0.4,0.35,0.59
		c0.06,0.08,0.11,0.17,0.17,0.24c0.16,0.23,0.3,0.45,0.35,0.73c0.05,0.3,0.02,0.62-0.02,0.93c-0.09,0.62-0.29,1.23-0.49,1.82h-0.01
		c0,0.01,0,0.01-0.01,0.02c-0.01-0.04-0.03-0.08-0.05-0.11c-0.45-1.15-1.61-2.48-1.68-3.8C27.19,16.64,27.2,16.55,27.22,16.44
		 M30.57,23.28h-1.09v-1.01h1.09V23.28z M27.35,15.8c0.27-0.63,0.86-1.17,1.57-1.15c0.28-0.01,0.57,0.07,0.83,0.24
		c0.69,0.47,1.19,1.36,0.75,2.62c-0.92,0.15-1.3-0.67-1.58-1.16v0c-0.17-0.29-0.36-0.72-0.72-0.82c-0.34-0.1-0.67,0.19-0.89,0.41
		C27.32,15.89,27.33,15.85,27.35,15.8 M36.04,22.27h1.09v1.01h-1.09V22.27z M39.31,23.28h-1.09v-1.01h1.09V23.28z M38.16,16.44
		c0.13-0.24,0.65-0.75,0.95-0.59c0.18,0.09,0.3,0.31,0.4,0.47c0.12,0.2,0.23,0.4,0.35,0.59c0.05,0.08,0.11,0.17,0.16,0.24
		c0.16,0.23,0.31,0.45,0.36,0.73c0.05,0.3,0.02,0.62-0.02,0.93c-0.09,0.62-0.29,1.23-0.49,1.82h-0.01c0,0.01,0,0.01-0.01,0.02
		c-0.01-0.04-0.03-0.08-0.05-0.11c-0.45-1.15-1.61-2.48-1.68-3.8C38.12,16.64,38.13,16.55,38.16,16.44 M41.5,23.28h-1.09v-1.01h1.09
		V23.28z M38.28,15.8c0.27-0.63,0.85-1.17,1.57-1.15c0.28-0.01,0.56,0.07,0.83,0.24c0.69,0.47,1.19,1.36,0.75,2.62
		c-0.92,0.15-1.29-0.67-1.57-1.16v0c-0.17-0.29-0.37-0.72-0.73-0.82c-0.34-0.1-0.67,0.19-0.89,0.41
		C38.26,15.89,38.27,15.85,38.28,15.8 M28.93,7.9C17.31,7.9,7.9,17.31,7.9,28.93c0,4.06,1.16,7.86,3.15,11.07h35.76
		c1.99-3.21,3.15-7.01,3.15-11.07C49.96,17.31,40.54,7.9,28.93,7.9 M11.46,40.63c3.78,5.62,10.18,9.32,17.46,9.32
		c0.91,0,1.81-0.06,2.69-0.17l-8.69-9.15H11.46z M40.63,46.4c2.28-1.53,4.24-3.49,5.77-5.77H34.84L40.63,46.4z M23.8,40.63
		l8.58,9.04c2.79-0.46,5.4-1.47,7.7-2.92l-6.13-6.12H23.8z"/>
	<rect class="st1" width="194.44" height="65.84"/>
	<g>
		<path class="st0" d="M73.96,17.43v-4.51c0-0.46-0.26-0.73-1.2-0.77v-0.13h3.33v0.13c-1,0.03-1.12,0.29-1.12,0.77v4.22
			c0,1.66,1.07,2.14,2.27,2.14c0.54,0,1.03-0.16,1.37-0.5c0.37-0.37,0.6-0.91,0.6-1.69v-3.31c0-1.03-0.33-1.46-1.41-1.62v-0.13h2.87
			v0.13c-1,0.18-1.2,0.59-1.2,1.62v3.43c0,1.42-0.85,2.43-2.72,2.43C75,19.63,73.96,18.83,73.96,17.43z"/>
		<path class="st0" d="M82.73,13.11h-0.01v4.58c0,1.03,0.22,1.46,1.31,1.62v0.14h-2.86v-0.14c1-0.17,1.29-0.59,1.29-1.62v-4.33
			c0-0.65-0.37-1.19-1.29-1.21v-0.13h2.08l4.33,5.84h0.01v-4.09c0-1.03-0.33-1.46-1.4-1.62v-0.13h2.87v0.13
			c-1,0.18-1.21,0.59-1.21,1.62v5.86h-0.23L82.73,13.11z"/>
		<path class="st0" d="M89.6,19.31c1.01-0.03,1.24-0.3,1.24-0.77v-5.63c0-0.46-0.22-0.73-1.24-0.77v-0.13h3.47v0.13
			c-1.01,0.03-1.24,0.31-1.24,0.77v5.63c0,0.47,0.22,0.73,1.24,0.77v0.14H89.6V19.31z"/>
		<path class="st0" d="M94.73,13.27c-0.3-0.79-0.46-0.99-1.28-1.12v-0.13h3.24v0.13c-1,0.05-1.14,0.31-0.92,0.92l1.9,5.19h0.04
			l1.76-4.57c0.37-0.97,0.23-1.35-0.72-1.53v-0.13h2.46v0.13c-0.72,0.15-1.04,0.53-1.53,1.76l-2.28,5.76h-0.23L94.73,13.27z"/>
		<path class="st0" d="M101.33,19.31c0.95-0.03,1.2-0.3,1.2-0.77v-5.63c0-0.46-0.26-0.73-1.2-0.77v-0.13h6.03l0.03,2.3l-0.14,0.01
			c-0.52-1.4-1.07-2.1-2.3-2.1h-1.41v3.25h0.67c0.9,0,1.34-0.3,1.63-1.47h0.14v3.15h-0.14c-0.29-1.17-0.74-1.47-1.63-1.47h-0.67
			v3.54h1.41c1.45,0,2.07-0.74,2.63-2.23l0.14,0.01l-0.05,2.43h-6.34V19.31z"/>
		<path class="st0" d="M110.81,18.55c0,0.49,0.17,0.73,1.17,0.77v0.14h-3.39v-0.14c0.95-0.03,1.2-0.3,1.2-0.77v-5.63
			c0-0.46-0.26-0.73-1.2-0.77v-0.13h3.14c2.17,0,3.05,0.78,3.05,1.8c0,0.93-0.64,1.66-2.26,1.9v0.03c1.58,0.07,1.92,0.78,2.09,1.92
			l0.06,0.44c0.17,1,0.35,1.14,1.3,1.14v0.12c-0.33,0.1-0.72,0.15-1.09,0.15c-0.99,0-1.2-0.39-1.32-1.37l-0.12-1.01
			c-0.13-1.07-0.42-1.29-1.68-1.29h-0.96V18.55z M111.83,15.63c1.51,0,1.81-0.71,1.81-1.77c0-0.98-0.45-1.62-1.97-1.62h-0.85v3.39
			H111.83z"/>
		<path class="st0" d="M116.28,17.02h0.15c0.58,1.35,1.25,2.37,2.45,2.37c1.12,0,1.65-0.76,1.65-1.42c0-1.01-0.65-1.35-2-1.83
			c-1.01-0.36-2.1-0.65-2.1-2.02c0-1.4,1.09-2.24,2.47-2.24c0.63,0,1.21,0.16,1.57,0.32l0.34-0.38h0.13v2.33h-0.15
			c-0.5-1.35-1.17-2.07-2.07-2.07c-0.76,0-1.43,0.49-1.43,1.36c0,0.97,0.7,1.29,1.91,1.69c1.02,0.34,2.08,0.68,2.08,2.07
			c0,1.11-0.65,2.4-2.5,2.4c-0.6,0-1.27-0.21-1.7-0.46l-0.66,0.5h-0.13V17.02z"/>
		<path class="st0" d="M122.21,19.31c1.01-0.03,1.24-0.3,1.24-0.77v-5.63c0-0.46-0.22-0.73-1.24-0.77v-0.13h3.47v0.13
			c-1.01,0.03-1.24,0.31-1.24,0.77v5.63c0,0.47,0.22,0.73,1.24,0.77v0.14h-3.47V19.31z"/>
		<path class="st0" d="M127.98,19.31c0.95-0.03,1.29-0.3,1.29-0.77v-6.31h-0.52c-0.78,0-1.49,0.66-2.11,2l-0.14-0.01l0.06-2.21h6.41
			l0.06,2.21l-0.14,0.01c-0.6-1.26-1.3-2-2.11-2h-0.52v6.31c0,0.47,0.34,0.73,1.29,0.77v0.14h-3.58V19.31z"/>
		<path class="st0" d="M137.3,16.6h-2.57l-0.34,0.88c-0.51,1.33-0.34,1.67,0.63,1.83v0.14h-2.47v-0.14
			c0.69-0.19,1.05-0.56,1.53-1.76l2.3-5.76h0.23l2.36,6.41c0.3,0.8,0.46,1,1.29,1.11v0.14h-3.25v-0.14
			c1.01-0.04,1.14-0.28,0.92-0.91L137.3,16.6z M137.23,16.38l-1.12-3.21h-0.04l-1.25,3.21H137.23z M135.65,10.27
			c-0.29-0.27-0.46-0.5-0.46-0.69c0-0.23,0.17-0.42,0.4-0.42c0.28,0,0.43,0.26,0.63,0.72l0.6,1.36h-0.12L135.65,10.27z"/>
	</g>
	<g>
		<path class="st0" d="M72.9,29.21c0.95-0.03,1.2-0.3,1.2-0.77v-5.63c0-0.46-0.26-0.74-1.2-0.77v-0.13h3.21
			c2.61,0,4.01,1.57,4.01,3.59c0,1.94-1.23,3.84-3.9,3.84H72.9V29.21z M75.87,29.14c2.33,0,3.06-0.81,3.06-3.56
			c0-2.79-0.98-3.44-2.98-3.44h-0.83v7H75.87z"/>
		<path class="st0" d="M80.97,29.21c0.95-0.03,1.2-0.3,1.2-0.77v-5.63c0-0.46-0.26-0.74-1.2-0.77v-0.13H87l0.03,2.3l-0.14,0.01
			c-0.52-1.4-1.06-2.1-2.3-2.1h-1.41v3.25h0.67c0.9,0,1.34-0.3,1.63-1.47h0.14v3.15h-0.14c-0.29-1.17-0.74-1.47-1.63-1.47h-0.67
			v3.54h1.41c1.45,0,2.07-0.74,2.63-2.23l0.14,0.01l-0.05,2.43h-6.34V29.21z"/>
		<path class="st0" d="M88.36,25.65c0-2.32,1.92-3.91,3.82-3.91c0.82,0,1.4,0.16,1.9,0.42l0.45-0.48h0.11v2.35H94.5
			c-0.52-1.37-1.41-2.09-2.44-2.09c-1.24,0-2.52,0.93-2.52,3.69c0,2.75,1.38,3.7,2.62,3.7c0.69,0,1.24-0.18,1.59-0.5v-1.84
			c0-0.46-0.26-0.8-1.2-0.83v-0.14h3.07v0.14c-0.71,0.04-0.85,0.23-0.85,0.83v1.88c-0.75,0.48-1.78,0.67-2.51,0.67
			C90.33,29.53,88.36,28.22,88.36,25.65z"/>
		<path class="st0" d="M96.19,29.21c0.95-0.03,1.2-0.3,1.2-0.77v-5.63c0-0.46-0.26-0.74-1.2-0.77v-0.13h3.33v0.13
			c-1.01,0.03-1.12,0.29-1.12,0.77v6.32h0.98c1.41,0,2.08-0.46,2.7-2.12l0.14,0.01l-0.11,2.32h-5.92V29.21z"/>
		<path class="st0" d="M102.78,29.21c1.01-0.03,1.24-0.3,1.24-0.77v-5.63c0-0.46-0.22-0.74-1.24-0.77v-0.13h3.47v0.13
			c-1.01,0.03-1.24,0.31-1.24,0.77v5.63c0,0.47,0.22,0.74,1.24,0.77v0.14h-3.47V29.21z"/>
		<path class="st0" d="M109.26,26.92h0.15c0.58,1.35,1.25,2.37,2.45,2.37c1.12,0,1.65-0.76,1.65-1.42c0-1.01-0.65-1.35-2-1.83
			c-1.01-0.36-2.1-0.65-2.1-2.02c0-1.4,1.09-2.24,2.47-2.24c0.63,0,1.21,0.16,1.57,0.32l0.34-0.38h0.13v2.33h-0.15
			c-0.5-1.35-1.17-2.07-2.07-2.07c-0.76,0-1.43,0.49-1.43,1.36c0,0.97,0.7,1.29,1.91,1.69c1.02,0.34,2.08,0.68,2.08,2.07
			c0,1.11-0.65,2.4-2.5,2.4c-0.6,0-1.27-0.21-1.7-0.46l-0.66,0.5h-0.13V26.92z"/>
		<path class="st0" d="M116.29,29.21c0.95-0.03,1.29-0.3,1.29-0.77v-6.31h-0.52c-0.78,0-1.49,0.66-2.11,2l-0.14-0.01l0.06-2.21h6.41
			l0.06,2.21l-0.14,0.01c-0.6-1.26-1.3-2-2.11-2h-0.52v6.31c0,0.47,0.34,0.74,1.29,0.77v0.14h-3.58V29.21z"/>
		<path class="st0" d="M123.13,27.33v-4.51c0-0.46-0.26-0.74-1.2-0.77v-0.13h3.33v0.13c-1,0.03-1.12,0.29-1.12,0.77v4.22
			c0,1.66,1.07,2.14,2.27,2.14c0.54,0,1.03-0.16,1.37-0.5c0.37-0.37,0.6-0.91,0.6-1.69v-3.31c0-1.03-0.33-1.46-1.41-1.62v-0.13h2.87
			v0.13c-1,0.18-1.2,0.59-1.2,1.62v3.43c0,1.42-0.85,2.43-2.72,2.43C124.16,29.53,123.13,28.73,123.13,27.33z"/>
		<path class="st0" d="M130.34,29.21c0.95-0.03,1.2-0.3,1.2-0.77v-5.63c0-0.46-0.26-0.74-1.2-0.77v-0.13h3.21
			c2.61,0,4.01,1.57,4.01,3.59c0,1.94-1.23,3.84-3.9,3.84h-3.31V29.21z M133.32,29.14c2.33,0,3.06-0.81,3.06-3.56
			c0-2.79-0.98-3.44-2.98-3.44h-0.83v7H133.32z"/>
		<path class="st0" d="M138.48,29.21c1.01-0.03,1.24-0.3,1.24-0.77v-5.63c0-0.46-0.22-0.74-1.24-0.77v-0.13h3.47v0.13
			c-1.01,0.03-1.24,0.31-1.24,0.77v5.63c0,0.47,0.22,0.74,1.24,0.77v0.14h-3.47V29.21z"/>
	</g>
	<g>
		<path class="st0" d="M72.9,39.11c0.95-0.03,1.2-0.3,1.2-0.77v-5.63c0-0.46-0.26-0.74-1.2-0.77v-0.13h3.21
			c2.61,0,4.01,1.57,4.01,3.59c0,1.94-1.23,3.84-3.9,3.84H72.9V39.11z M75.87,39.03c2.33,0,3.06-0.81,3.06-3.56
			c0-2.79-0.98-3.44-2.98-3.44h-0.83v7H75.87z"/>
		<path class="st0" d="M80.97,39.11c0.95-0.03,1.2-0.3,1.2-0.77v-5.63c0-0.46-0.26-0.74-1.2-0.77v-0.13H87l0.03,2.3l-0.14,0.01
			c-0.52-1.4-1.06-2.1-2.3-2.1h-1.41v3.25h0.67c0.9,0,1.34-0.3,1.63-1.47h0.14v3.15h-0.14c-0.29-1.17-0.74-1.47-1.63-1.47h-0.67
			v3.54h1.41c1.45,0,2.07-0.74,2.63-2.23l0.14,0.01l-0.05,2.43h-6.34V39.11z"/>
		<path class="st0" d="M88.24,39.11c0.95-0.03,1.2-0.3,1.2-0.77v-5.63c0-0.46-0.26-0.74-1.2-0.77v-0.13h3.33v0.13
			c-1.01,0.03-1.12,0.29-1.12,0.77v6.32h0.98c1.41,0,2.08-0.46,2.7-2.12l0.14,0.01l-0.11,2.32h-5.92V39.11z"/>
		<path class="st0" d="M94.77,39.11c0.95-0.03,1.2-0.3,1.2-0.77v-5.63c0-0.46-0.26-0.74-1.2-0.77v-0.13h3.33v0.13
			c-1.01,0.03-1.12,0.29-1.12,0.77v6.32h0.98c1.41,0,2.08-0.46,2.7-2.12l0.14,0.01l-0.11,2.32h-5.92V39.11z"/>
		<path class="st0" d="M105.7,36.39h-2.57l-0.34,0.88c-0.51,1.33-0.34,1.67,0.63,1.83v0.14h-2.47v-0.14
			c0.69-0.19,1.05-0.56,1.53-1.76l2.3-5.76h0.23l2.36,6.41c0.3,0.8,0.46,1,1.29,1.11v0.14h-3.25v-0.14
			c1.01-0.04,1.14-0.28,0.92-0.91L105.7,36.39z M105.63,36.18l-1.12-3.21h-0.04l-1.25,3.21H105.63z"/>
		<path class="st0" d="M112.93,38.34c0,0.49,0.17,0.74,1.17,0.77v0.14h-3.39v-0.14c0.95-0.03,1.2-0.3,1.2-0.77v-5.63
			c0-0.46-0.26-0.74-1.2-0.77v-0.13h3.14c2.17,0,3.05,0.78,3.05,1.8c0,0.93-0.64,1.66-2.26,1.9v0.03c1.58,0.07,1.92,0.78,2.09,1.92
			l0.06,0.44c0.17,1,0.35,1.14,1.3,1.14v0.12c-0.33,0.1-0.72,0.15-1.09,0.15c-0.99,0-1.2-0.39-1.32-1.37l-0.12-1.01
			c-0.13-1.07-0.42-1.29-1.68-1.29h-0.96V38.34z M113.95,35.42c1.51,0,1.81-0.71,1.81-1.77c0-0.98-0.45-1.62-1.97-1.62h-0.85v3.39
			H113.95z"/>
		<path class="st0" d="M118.17,39.11c0.95-0.03,1.2-0.3,1.2-0.77v-5.63c0-0.46-0.26-0.74-1.2-0.77v-0.13h6.03l0.03,2.3l-0.14,0.01
			c-0.52-1.4-1.07-2.1-2.3-2.1h-1.41v3.25h0.67c0.89,0,1.34-0.3,1.63-1.47h0.14v3.15h-0.14c-0.29-1.17-0.74-1.47-1.63-1.47h-0.67
			v3.54h1.41c1.45,0,2.07-0.74,2.63-2.23l0.14,0.01l-0.05,2.43h-6.34V39.11z"/>
		<path class="st0" d="M125.43,39.11c0.95-0.03,1.2-0.3,1.2-0.77v-5.63c0-0.46-0.26-0.74-1.2-0.77v-0.13h3.05
			c2.26,0,2.97,0.91,2.97,2.01c0,1.03-0.75,2.1-3.05,2.1h-0.76v2.41c0,0.49,0.27,0.74,1.28,0.77v0.14h-3.49V39.11z M128.48,35.72
			c1.53,0,1.82-0.74,1.82-1.91c0-1.01-0.32-1.78-1.79-1.78h-0.86v3.69H128.48z"/>
		<path class="st0" d="M133.25,37.22v-4.51c0-0.46-0.26-0.74-1.2-0.77v-0.13h3.33v0.13c-1,0.03-1.12,0.29-1.12,0.77v4.22
			c0,1.66,1.07,2.14,2.27,2.14c0.54,0,1.03-0.16,1.37-0.5c0.37-0.37,0.6-0.91,0.6-1.69v-3.31c0-1.03-0.33-1.46-1.41-1.62v-0.13h2.87
			v0.13c-1,0.18-1.2,0.59-1.2,1.62V37c0,1.42-0.85,2.43-2.72,2.43C134.29,39.43,133.25,38.63,133.25,37.22z"/>
		<path class="st0" d="M140.46,39.11c0.95-0.03,1.2-0.3,1.2-0.77v-5.63c0-0.46-0.26-0.74-1.2-0.77v-0.13h3.16
			c2.15,0,2.87,0.84,2.87,1.79c0,0.77-0.58,1.57-2.07,1.68v0.03c1.58,0.09,2.39,0.72,2.39,1.79c0,1.04-0.78,2.13-3.09,2.13h-3.26
			V39.11z M143.76,35.21c1.2,0,1.64-0.55,1.64-1.57c0-0.92-0.33-1.61-1.68-1.61h-1.03v3.17H143.76z M143.88,39.03
			c1.35,0,1.81-0.53,1.81-1.89c0-0.99-0.56-1.73-1.9-1.73h-1.12v3.61H143.88z"/>
		<path class="st0" d="M147.59,39.11c0.95-0.03,1.2-0.3,1.2-0.77v-5.63c0-0.46-0.26-0.74-1.2-0.77v-0.13h3.16
			c2.15,0,2.87,0.84,2.87,1.79c0,0.77-0.58,1.57-2.07,1.68v0.03c1.58,0.09,2.39,0.72,2.39,1.79c0,1.04-0.78,2.13-3.09,2.13h-3.26
			V39.11z M150.88,35.21c1.2,0,1.64-0.55,1.64-1.57c0-0.92-0.33-1.61-1.68-1.61h-1.03v3.17H150.88z M151.01,39.03
			c1.35,0,1.81-0.53,1.81-1.89c0-0.99-0.56-1.73-1.9-1.73h-1.12v3.61H151.01z"/>
		<path class="st0" d="M154.72,39.11c0.95-0.03,1.2-0.3,1.2-0.77v-5.63c0-0.46-0.26-0.74-1.2-0.77v-0.13h3.33v0.13
			c-1.01,0.03-1.12,0.29-1.12,0.77v6.32h0.98c1.41,0,2.08-0.46,2.7-2.12l0.14,0.01l-0.11,2.32h-5.92V39.11z"/>
		<path class="st0" d="M161.31,39.11c1.01-0.03,1.24-0.3,1.24-0.77v-5.63c0-0.46-0.22-0.74-1.24-0.77v-0.13h3.47v0.13
			c-1.01,0.03-1.24,0.31-1.24,0.77v5.63c0,0.47,0.22,0.74,1.24,0.77v0.14h-3.47V39.11z"/>
		<path class="st0" d="M165.71,35.62c0-2.27,1.69-3.98,3.82-3.98c0.78,0,1.4,0.16,1.9,0.42l0.45-0.48h0.11v2.44h-0.13
			c-0.52-1.44-1.33-2.17-2.44-2.17c-1.3,0-2.53,1.05-2.53,3.74c0,2.56,1.47,3.46,2.73,3.46c1.28,0,2.18-0.89,2.62-1.84l0.17,0.1
			c-0.46,1.04-1.43,2.13-3.08,2.13C167.22,39.43,165.71,37.92,165.71,35.62z"/>
		<path class="st0" d="M177.04,36.39h-2.57l-0.34,0.88c-0.51,1.33-0.34,1.67,0.63,1.83v0.14h-2.47v-0.14
			c0.69-0.19,1.05-0.56,1.53-1.76l2.3-5.76h0.23l2.37,6.41c0.3,0.8,0.46,1,1.29,1.11v0.14h-3.25v-0.14
			c1.01-0.04,1.14-0.28,0.92-0.91L177.04,36.39z M176.97,36.18l-1.12-3.21h-0.04l-1.25,3.21H176.97z"/>
	</g>
	<g>
		<path class="st0" d="M72.9,49.01c0.95-0.03,1.2-0.3,1.2-0.77v-5.63c0-0.46-0.26-0.74-1.2-0.77v-0.13h3.21
			c2.61,0,4.01,1.57,4.01,3.59c0,1.94-1.23,3.84-3.9,3.84H72.9V49.01z M75.87,48.93c2.33,0,3.06-0.81,3.06-3.56
			c0-2.79-0.98-3.44-2.98-3.44h-0.83v7H75.87z"/>
		<path class="st0" d="M81.04,49.01c1.01-0.03,1.24-0.3,1.24-0.77v-5.63c0-0.46-0.22-0.74-1.24-0.77v-0.13h3.47v0.13
			c-1.01,0.03-1.24,0.31-1.24,0.77v5.63c0,0.47,0.22,0.74,1.24,0.77v0.14h-3.47V49.01z"/>
		<path class="st0" d="M87.51,46.72h0.15c0.58,1.35,1.25,2.37,2.45,2.37c1.12,0,1.65-0.76,1.65-1.42c0-1.01-0.65-1.35-2-1.83
			c-1.01-0.36-2.1-0.65-2.1-2.02c0-1.4,1.09-2.24,2.47-2.24c0.63,0,1.21,0.16,1.57,0.32l0.34-0.38h0.13v2.33h-0.15
			c-0.5-1.35-1.17-2.07-2.07-2.07c-0.76,0-1.43,0.49-1.43,1.36c0,0.97,0.7,1.29,1.91,1.69c1.02,0.34,2.08,0.68,2.08,2.07
			c0,1.11-0.65,2.4-2.5,2.4c-0.6,0-1.27-0.21-1.7-0.46l-0.66,0.5h-0.13V46.72z"/>
		<path class="st0" d="M97.67,46.29H95.1l-0.34,0.88c-0.51,1.33-0.34,1.67,0.63,1.83v0.14h-2.47v-0.14
			c0.69-0.19,1.05-0.56,1.53-1.76l2.3-5.76h0.23l2.37,6.41c0.3,0.8,0.46,1,1.29,1.11v0.14h-3.25v-0.14
			c1.01-0.04,1.14-0.28,0.92-0.91L97.67,46.29z M97.59,46.08l-1.12-3.21h-0.04l-1.25,3.21H97.59z"/>
		<path class="st0" d="M102.28,42.81h-0.01v4.58c0,1.03,0.22,1.46,1.31,1.62v0.14h-2.86v-0.14c1-0.17,1.29-0.59,1.29-1.62v-4.33
			c0-0.65-0.37-1.19-1.29-1.21v-0.13h2.08l4.33,5.84h0.01v-4.09c0-1.03-0.33-1.46-1.4-1.62v-0.13h2.87v0.13
			c-1,0.18-1.21,0.59-1.21,1.62v5.86h-0.23L102.28,42.81z"/>
		<path class="st0" d="M111.05,49.01c1-0.17,1.28-0.59,1.28-1.62v-4.33c0-0.65-0.36-1.19-1.28-1.21v-0.13h2.43l2.41,5.96h0.04
			l2.32-5.96h2.27v0.13c-0.95,0.03-1.2,0.31-1.2,0.77v5.63c0,0.47,0.26,0.74,1.2,0.77v0.14h-3.32v-0.14c1-0.03,1.11-0.28,1.11-0.77
			v-5.83h-0.05l-2.65,6.75h-0.14l-2.81-6.78h-0.05v5c0,1.03,0.22,1.46,1.31,1.62v0.14h-2.86V49.01z"/>
		<path class="st0" d="M125.35,46.29h-2.57l-0.34,0.88c-0.51,1.33-0.34,1.67,0.63,1.83v0.14h-2.47v-0.14
			c0.69-0.19,1.05-0.56,1.53-1.76l2.3-5.76h0.23l2.37,6.41c0.3,0.8,0.46,1,1.29,1.11v0.14h-3.25v-0.14
			c1.01-0.04,1.14-0.28,0.92-0.91L125.35,46.29z M125.27,46.08l-1.12-3.21h-0.04l-1.25,3.21H125.27z"/>
		<path class="st0" d="M130.62,48.24c0,0.49,0.17,0.74,1.17,0.77v0.14h-3.39v-0.14c0.95-0.03,1.2-0.3,1.2-0.77v-5.63
			c0-0.46-0.26-0.74-1.2-0.77v-0.13h3.14c2.17,0,3.05,0.78,3.05,1.8c0,0.93-0.64,1.66-2.26,1.9v0.03c1.58,0.07,1.92,0.78,2.09,1.92
			l0.06,0.44c0.17,1,0.35,1.14,1.3,1.14v0.12c-0.33,0.1-0.72,0.15-1.09,0.15c-0.99,0-1.2-0.39-1.32-1.37l-0.12-1.01
			c-0.13-1.07-0.42-1.29-1.68-1.29h-0.96V48.24z M131.63,45.32c1.51,0,1.81-0.71,1.81-1.77c0-0.98-0.45-1.62-1.97-1.62h-0.85v3.39
			H131.63z"/>
		<path class="st0" d="M135.92,49.01c1.01-0.03,1.24-0.3,1.24-0.77v-5.63c0-0.46-0.22-0.74-1.24-0.77v-0.13h3.47v0.13
			c-1.01,0.03-1.24,0.31-1.24,0.77v5.63c0,0.47,0.22,0.74,1.24,0.77v0.14h-3.47V49.01z"/>
		<path class="st0" d="M141.75,42.81h-0.01v4.58c0,1.03,0.22,1.46,1.31,1.62v0.14h-2.86v-0.14c1-0.17,1.29-0.59,1.29-1.62v-4.33
			c0-0.65-0.37-1.19-1.29-1.21v-0.13h2.08l4.33,5.84h0.01v-4.09c0-1.03-0.33-1.46-1.4-1.62v-0.13h2.87v0.13
			c-1,0.18-1.21,0.59-1.21,1.62v5.86h-0.23L141.75,42.81z"/>
		<path class="st0" d="M148.68,45.45c0-2.32,1.75-3.91,3.55-3.91c1.84,0,3.55,1.53,3.55,3.88c0,2.32-1.76,3.91-3.55,3.91
			C150.37,49.33,148.68,47.79,148.68,45.45z M154.59,45.44c0-2.89-1.04-3.7-2.42-3.7c-1.36,0-2.31,0.82-2.31,3.69
			c0,2.89,1.04,3.7,2.41,3.7S154.59,48.3,154.59,45.44z"/>
	</g>
</g>
<g>
	<g>
		<path class="st0" d="M273.58,45.35c-0.31,0.66-0.82,0.99-1.51,0.99c-0.88,0-1.46-0.34-1.74-1.03c-0.1-0.24-0.15-0.53-0.15-0.87
			v-3.17h1.21v3.05c0,0.33,0.08,0.57,0.23,0.73c0.16,0.16,0.35,0.24,0.58,0.24c0.23,0,0.42-0.03,0.58-0.1
			c0.16-0.06,0.29-0.16,0.41-0.29c0.25-0.29,0.39-0.68,0.4-1.17v-2.45h1.21v4.98h-1.21V45.35z"/>
		<path class="st0" d="M277.88,42.15c0.33-0.66,0.85-0.99,1.57-0.99c0.61,0,1.07,0.2,1.38,0.6c0.31,0.4,0.46,0.93,0.46,1.59v2.9
			h-1.21v-2.9c0-0.37-0.09-0.65-0.27-0.83c-0.18-0.19-0.43-0.28-0.75-0.28c-0.32,0-0.59,0.14-0.82,0.43
			c-0.23,0.29-0.35,0.72-0.36,1.29v2.3h-1.21v-4.97h1.05L277.88,42.15z"/>
		<path class="st0" d="M283.01,39.68c0-0.22,0.06-0.39,0.19-0.52c0.13-0.13,0.31-0.19,0.55-0.19c0.23,0,0.41,0.06,0.55,0.19
			c0.13,0.13,0.2,0.3,0.2,0.52c0,0.22-0.07,0.39-0.2,0.52c-0.13,0.13-0.32,0.19-0.55,0.19c-0.24,0-0.42-0.06-0.55-0.19
			C283.08,40.07,283.01,39.9,283.01,39.68z M283.16,41.28h1.21v4.98h-1.21V41.28z"/>
		<path class="st0" d="M287.61,42.27c0.3-0.72,0.75-1.07,1.35-1.07c0.12,0,0.26,0.02,0.44,0.07l-0.02,1.21
			c-0.19-0.04-0.38-0.06-0.56-0.06c-0.8,0-1.21,0.56-1.21,1.67v2.18h-1.21v-4.98h1.21V42.27z"/>
		<path class="st0" d="M291.33,44.74c0.01,0.47,0.36,0.7,1.03,0.7c0.26,0,0.47-0.06,0.64-0.17c0.17-0.11,0.25-0.24,0.25-0.39
			s-0.05-0.27-0.15-0.35c-0.1-0.08-0.26-0.16-0.48-0.22l-1.08-0.39c-0.8-0.28-1.21-0.74-1.21-1.37c0-0.42,0.19-0.76,0.57-1.02
			c0.38-0.26,0.89-0.38,1.52-0.38s1.13,0.14,1.47,0.42c0.34,0.28,0.52,0.63,0.54,1.05h-1.13c-0.01-0.16-0.09-0.29-0.23-0.39
			c-0.14-0.1-0.35-0.14-0.61-0.14c-0.27,0-0.47,0.05-0.62,0.16c-0.15,0.11-0.22,0.23-0.22,0.36c0,0.24,0.2,0.42,0.6,0.53l1.17,0.44
			c0.39,0.13,0.69,0.29,0.89,0.5c0.21,0.2,0.31,0.46,0.31,0.78c0,0.41-0.19,0.76-0.58,1.06c-0.4,0.31-0.93,0.47-1.59,0.47
			c-0.66,0-1.19-0.14-1.59-0.43c-0.4-0.29-0.61-0.7-0.61-1.22H291.33z"/>
		<path class="st0" d="M300.46,42.23c0.32-0.72,0.88-1.07,1.69-1.07c0.59,0,1.05,0.2,1.38,0.6c0.31,0.38,0.47,0.91,0.47,1.59v2.9
			h-1.22v-2.9c0-0.37-0.09-0.65-0.27-0.83c-0.18-0.19-0.43-0.28-0.75-0.28c-0.32,0-0.58,0.14-0.79,0.42
			c-0.2,0.28-0.31,0.7-0.33,1.27v2.33h-1.21v-2.9c0-0.37-0.09-0.65-0.27-0.83c-0.18-0.19-0.43-0.28-0.75-0.28
			c-0.32,0-0.59,0.14-0.82,0.43c-0.23,0.29-0.35,0.72-0.36,1.29v2.3h-1.21v-4.97h1.05l0.13,0.86c0.33-0.66,0.85-0.99,1.57-0.99
			c0.42,0,0.76,0.1,1.04,0.29C300.11,41.63,300.32,41.89,300.46,42.23z"/>
		<path class="st0" d="M273.84,55.57c-0.31,0.61-0.78,0.91-1.41,0.91c-0.63,0-1.16-0.24-1.59-0.73c-0.44-0.5-0.66-1.14-0.66-1.92
			s0.21-1.41,0.63-1.89c0.42-0.47,0.93-0.7,1.55-0.7c0.62,0,1.09,0.25,1.4,0.75v-2.66h1.22v7.01h-0.99L273.84,55.57z M272.58,52.33
			c-0.34,0-0.62,0.14-0.85,0.41c-0.23,0.28-0.34,0.65-0.34,1.11c0,0.46,0.12,0.84,0.35,1.12c0.23,0.28,0.52,0.42,0.88,0.42
			c0.29,0,0.56-0.12,0.79-0.35c0.24-0.24,0.36-0.54,0.36-0.9V53.5c-0.01-0.35-0.13-0.64-0.36-0.87
			C273.2,52.43,272.92,52.33,272.58,52.33z"/>
		<path class="st0" d="M280.72,52.72c0.09,0.29,0.13,0.55,0.13,0.79c0,0.24-0.01,0.45-0.04,0.64h-3.21c0.01,0.4,0.11,0.73,0.3,0.98
			c0.18,0.25,0.46,0.38,0.84,0.38c0.5,0,0.79-0.22,0.89-0.65h1.22c-0.08,0.5-0.31,0.89-0.68,1.18c-0.39,0.3-0.86,0.45-1.42,0.45
			c-0.65,0-1.2-0.24-1.64-0.72c-0.46-0.5-0.68-1.13-0.68-1.91c0-0.8,0.23-1.44,0.68-1.92c0.44-0.46,0.98-0.69,1.64-0.69
			c0.69,0,1.22,0.24,1.6,0.73C280.51,52.19,280.64,52.44,280.72,52.72z M278.75,52.2c-0.34,0-0.61,0.11-0.8,0.33
			c-0.19,0.22-0.3,0.51-0.34,0.85h2.12c0-0.54-0.17-0.9-0.51-1.08C279.09,52.24,278.93,52.2,278.75,52.2z"/>
		<path class="st0" d="M282.97,54.83c0.01,0.47,0.36,0.7,1.03,0.7c0.26,0,0.47-0.06,0.64-0.17c0.17-0.11,0.25-0.24,0.25-0.39
			s-0.05-0.27-0.15-0.35c-0.1-0.08-0.26-0.16-0.48-0.22l-1.08-0.39c-0.8-0.28-1.21-0.74-1.21-1.37c0-0.42,0.19-0.76,0.57-1.02
			c0.38-0.26,0.89-0.38,1.52-0.38s1.13,0.14,1.47,0.42c0.34,0.28,0.52,0.63,0.54,1.05h-1.13c-0.01-0.16-0.09-0.29-0.23-0.39
			c-0.14-0.1-0.35-0.14-0.61-0.14c-0.27,0-0.47,0.05-0.62,0.16c-0.15,0.11-0.22,0.23-0.22,0.36c0,0.24,0.2,0.42,0.6,0.53l1.17,0.44
			c0.39,0.13,0.69,0.29,0.89,0.5c0.21,0.2,0.31,0.46,0.31,0.78c0,0.41-0.19,0.76-0.58,1.06c-0.4,0.31-0.93,0.47-1.59,0.47
			c-0.66,0-1.19-0.14-1.59-0.43c-0.4-0.29-0.61-0.7-0.61-1.22H282.97z"/>
		<path class="st0" d="M287.63,49.77c0-0.22,0.06-0.39,0.19-0.52c0.13-0.13,0.31-0.19,0.55-0.19c0.23,0,0.41,0.06,0.55,0.19
			c0.13,0.13,0.2,0.3,0.2,0.52c0,0.22-0.07,0.39-0.2,0.52c-0.13,0.13-0.32,0.19-0.55,0.19c-0.24,0-0.42-0.06-0.55-0.19
			C287.7,50.16,287.63,49.99,287.63,49.77z M287.78,51.36h1.21v4.98h-1.21V51.36z"/>
		<path class="st0" d="M291.46,54.31c-0.4-0.34-0.6-0.77-0.6-1.28c0-0.54,0.21-0.97,0.63-1.31c0.41-0.32,0.88-0.48,1.41-0.48
			c0.53,0,0.97,0.1,1.32,0.3c0.04-0.39,0.21-0.7,0.5-0.94c0.29-0.24,0.62-0.36,1.01-0.36l-0.06,1.15c-0.59,0-0.89,0.19-0.91,0.58
			c0.25,0.31,0.38,0.63,0.38,0.96c0,0.33-0.06,0.6-0.17,0.82c-0.12,0.22-0.27,0.41-0.47,0.56c-0.41,0.33-0.91,0.49-1.49,0.49
			c-0.33,0-0.64-0.05-0.91-0.15c-0.27,0.08-0.41,0.25-0.41,0.49c0,0.31,0.26,0.46,0.78,0.46h1.67c1.13,0,1.7,0.39,1.7,1.18
			c0,0.27-0.07,0.53-0.2,0.78c-0.13,0.26-0.33,0.48-0.58,0.68c-0.56,0.44-1.26,0.65-2.11,0.65c-0.82,0-1.48-0.17-1.99-0.5
			c-0.48-0.32-0.72-0.71-0.72-1.17c0-0.31,0.09-0.55,0.28-0.73c0.19-0.18,0.43-0.29,0.74-0.34c-0.4-0.25-0.6-0.55-0.6-0.91
			c0-0.24,0.07-0.44,0.22-0.6C291.02,54.49,291.22,54.38,291.46,54.31z M292.38,56.45c-0.64,0.03-0.96,0.27-0.96,0.73
			c0,0.23,0.13,0.42,0.4,0.56c0.27,0.14,0.59,0.21,0.96,0.21c0.37,0,0.66-0.03,0.86-0.09c0.21-0.06,0.38-0.14,0.53-0.25
			c0.31-0.2,0.46-0.45,0.46-0.74c0-0.12-0.04-0.22-0.13-0.3c-0.09-0.08-0.21-0.12-0.37-0.12H292.38z M293.94,53.01
			c0-0.28-0.08-0.5-0.23-0.67c-0.15-0.17-0.39-0.26-0.7-0.26c-0.31,0-0.55,0.09-0.72,0.26c-0.16,0.17-0.25,0.4-0.25,0.67
			c0,0.28,0.08,0.5,0.25,0.68c0.16,0.18,0.4,0.27,0.72,0.27c0.31,0,0.55-0.09,0.7-0.27C293.86,53.52,293.94,53.29,293.94,53.01z"/>
		<path class="st0" d="M298.16,52.23c0.33-0.66,0.85-0.99,1.57-0.99c0.61,0,1.07,0.2,1.38,0.6c0.31,0.4,0.46,0.93,0.46,1.59v2.9
			h-1.21v-2.9c0-0.37-0.09-0.65-0.27-0.83c-0.18-0.19-0.43-0.28-0.75-0.28c-0.32,0-0.59,0.14-0.82,0.43
			c-0.23,0.29-0.35,0.72-0.36,1.29v2.3h-1.21v-4.97h1.05L298.16,52.23z"/>
	</g>
	<path class="st0" d="M251.67,34.54h-11.53c-6.16,0-11.15-4.99-11.15-11.15V2.64c0-1.06,0.86-1.92,1.92-1.92h29.98
		c1.06,0,1.92,0.86,1.92,1.92V23.4C262.82,29.55,257.83,34.54,251.67,34.54z"/>
	<path class="st0" d="M304,11.8v11.53c0,6.16-4.99,11.15-11.15,11.15H272.1c-1.06,0-1.92-0.86-1.92-1.92V2.57
		c0-1.06,0.86-1.92,1.92-1.92h20.75C299.01,0.65,304,5.64,304,11.8z"/>
</g>
</svg>
